<svg width="128" height="27" viewBox="0 0 128 27" fill="none" xmlns="http://www.w3.org/2000/svg">
<path d="M13.2861 24.0574V23.7587C13.5346 23.7587 13.7844 23.7506 14.0301 23.7329L14.0505 24.0302C13.798 24.0479 13.54 24.0574 13.2861 24.0574Z" fill="#44C9F7"/>
<path d="M18.9678 22.4393L18.8103 22.1854C19.2262 21.9264 19.6236 21.6389 19.9996 21.3247L20.191 21.5542C19.8048 21.8772 19.3965 22.173 18.9691 22.4393" fill="#44C9F7"/>
<path d="M23.2513 17.3824L22.9797 17.2684C23.1755 16.7917 23.3357 16.3012 23.459 15.8008L23.7482 15.8727C23.6214 16.3874 23.4567 16.8921 23.2553 17.3824" fill="#44C9F7"/>
<path d="M23.4479 10.7671C23.3258 10.2724 23.1674 9.78724 22.9741 9.31574L23.2457 9.20312C23.4444 9.68835 23.6073 10.1875 23.7331 10.6965L23.4479 10.7671Z" fill="#44C9F7"/>
<path d="M20.0092 5.25547C19.6382 4.94466 19.2463 4.65979 18.8362 4.40288L18.995 4.15039C19.4171 4.41456 19.8204 4.70761 20.202 5.02743L20.0092 5.25547Z" fill="#44C9F7"/>
<path d="M14.0736 2.84321C13.8129 2.8242 13.5482 2.81338 13.2861 2.81338V2.51465C13.5577 2.51465 13.8292 2.5242 14.1007 2.54456L14.0736 2.84321Z" fill="#44C9F7"/>
<path d="M16.5782 0.785949C17.2178 0.786667 17.8311 1.04108 18.2833 1.49336C18.7356 1.94565 18.99 2.55884 18.9908 3.19847C18.99 3.8381 18.7356 4.45137 18.2833 4.90366C17.8311 5.35594 17.2178 5.61035 16.5782 5.61107C15.9388 5.60999 15.3259 5.3554 14.8739 4.90316C14.422 4.45091 14.1677 3.83786 14.167 3.19847C14.1677 2.55884 14.4221 1.94565 14.8744 1.49336C15.3267 1.04108 15.9399 0.786667 16.5796 0.785949H16.5782ZM16.5796 0.487305C15.8594 0.487305 15.1688 0.773337 14.6596 1.28256C14.1503 1.79177 13.8643 2.48247 13.8643 3.20261C13.8643 3.92276 14.1503 4.61337 14.6596 5.12258C15.1688 5.6318 15.8594 5.91792 16.5796 5.91792C17.2997 5.91792 17.9904 5.6318 18.4996 5.12258C19.0088 4.61337 19.2949 3.92276 19.2949 3.20261C19.2949 2.48247 19.0088 1.79177 18.4996 1.28256C17.9904 0.773337 17.2997 0.487305 16.5796 0.487305Z" fill="#44C9F7"/>
<path d="M18.6921 3.19835C18.6921 3.75898 18.4694 4.29663 18.073 4.69306C17.6765 5.08949 17.1389 5.31214 16.5782 5.31214C16.0176 5.31214 15.4799 5.08949 15.0835 4.69306C14.6871 4.29663 14.4644 3.75898 14.4644 3.19835C14.4644 2.92075 14.519 2.64581 14.6253 2.38934C14.7315 2.13288 14.8872 1.89984 15.0835 1.70355C15.2798 1.50726 15.5128 1.35154 15.7693 1.24531C16.0258 1.13908 16.3006 1.08447 16.5782 1.08447C16.8558 1.08447 17.1307 1.13908 17.3872 1.24531C17.6436 1.35154 17.8767 1.50726 18.073 1.70355C18.2692 1.89984 18.425 2.13288 18.5312 2.38934C18.6374 2.64581 18.6921 2.92075 18.6921 3.19835Z" fill="#44C9F7"/>
<path d="M23.8608 10.8749C24.5004 10.8756 25.1137 11.13 25.5659 11.5823C26.0182 12.0346 26.2726 12.6478 26.2734 13.2874C26.2723 13.9268 26.0177 14.5397 25.5655 14.9917C25.1132 15.4437 24.5002 15.6979 23.8608 15.6986C23.2214 15.6979 22.6084 15.4437 22.1561 14.9917C21.7039 14.5397 21.4493 13.9268 21.4483 13.2874C21.449 12.6478 21.7034 12.0346 22.1557 11.5823C22.608 11.13 23.2212 10.8756 23.8608 10.8749ZM23.8608 10.5762C23.1407 10.5762 22.45 10.8623 21.9408 11.3715C21.4316 11.8807 21.1455 12.5713 21.1455 13.2915C21.1455 14.0116 21.4316 14.7023 21.9408 15.2115C22.45 15.7208 23.1407 16.0068 23.8608 16.0068C24.581 16.0068 25.2716 15.7208 25.7808 15.2115C26.29 14.7023 26.5761 14.0116 26.5761 13.2915C26.5761 12.5713 26.29 11.8807 25.7808 11.3715C25.2716 10.8623 24.581 10.5762 23.8608 10.5762Z" fill="#44C9F7"/>
<path d="M25.9746 13.2862C25.9746 13.8469 25.7519 14.3845 25.3554 14.781C24.959 15.1774 24.4213 15.4001 23.8607 15.4001C23.3001 15.4001 22.7624 15.1774 22.366 14.781C21.9695 14.3845 21.7468 13.8469 21.7468 13.2862C21.7468 13.0085 21.8016 12.7335 21.9079 12.477C22.0142 12.2204 22.17 11.9873 22.3664 11.791C22.5629 11.5947 22.7961 11.439 23.0527 11.3329C23.3093 11.2267 23.5843 11.1722 23.862 11.1724C24.4227 11.1724 24.9604 11.3951 25.3568 11.7915C25.7532 12.188 25.9759 12.7256 25.9759 13.2862" fill="#44C9F7"/>
<path d="M21.7483 4.69326C22.3879 4.69398 23.0011 4.94839 23.4534 5.40067C23.9057 5.85296 24.1601 6.46615 24.1608 7.10578C24.1601 7.74541 23.9057 8.3586 23.4534 8.81088C23.0011 9.26317 22.3879 9.51758 21.7483 9.5183C21.1086 9.51758 20.4954 9.26317 20.0431 8.81088C19.5909 8.3586 19.3364 7.74541 19.3357 7.10578C19.3364 6.46615 19.5909 5.85296 20.0431 5.40067C20.4954 4.94839 21.1086 4.69398 21.7483 4.69326ZM21.7483 4.39453C21.0281 4.39453 20.3375 4.68065 19.8283 5.18987C19.3191 5.69908 19.033 6.38969 19.033 7.10984C19.033 7.82998 19.3191 8.52067 19.8283 9.02989C20.3375 9.53911 21.0281 9.82514 21.7483 9.82514C22.4684 9.82514 23.1591 9.53911 23.6683 9.02989C24.1775 8.52067 24.4636 7.82998 24.4636 7.10984C24.4636 6.38969 24.1775 5.69908 23.6683 5.18987C23.1591 4.68065 22.4684 4.39453 21.7483 4.39453Z" fill="#44C9F7"/>
<path d="M23.862 7.10606C23.862 7.6667 23.6393 8.20435 23.2429 8.60077C22.8464 8.9972 22.3088 9.21986 21.7481 9.21986C21.1875 9.21986 20.6498 8.9972 20.2534 8.60077C19.857 8.20435 19.6343 7.6667 19.6343 7.10606C19.6343 6.82847 19.6889 6.55352 19.7952 6.29706C19.9014 6.04059 20.0571 5.80756 20.2534 5.61127C20.4497 5.41498 20.6827 5.25926 20.9392 5.15303C21.1957 5.0468 21.4705 4.99219 21.7481 4.99219C22.0257 4.99219 22.3006 5.0468 22.5571 5.15303C22.8135 5.25926 23.0466 5.41498 23.2429 5.61127C23.4392 5.80756 23.5949 6.04059 23.7011 6.29706C23.8073 6.55352 23.862 6.82847 23.862 7.10606Z" fill="#44C9F7"/>
<path d="M16.5782 20.9617C17.2178 20.9624 17.8311 21.2168 18.2833 21.6691C18.7356 22.1214 18.99 22.7346 18.9908 23.3743C18.99 24.0139 18.7356 24.6271 18.2833 25.0794C17.8311 25.5317 17.2178 25.7861 16.5782 25.7868C15.9386 25.7857 15.3255 25.5309 14.8735 25.0784C14.4214 24.6258 14.1674 24.0125 14.167 23.3729C14.1677 22.7332 14.4221 22.12 14.8744 21.6678C15.3267 21.2155 15.9399 20.9611 16.5796 20.9603L16.5782 20.9617ZM16.5796 20.6616C15.8594 20.6616 15.1688 20.9477 14.6596 21.457C14.1503 21.9662 13.8643 22.6568 13.8643 23.3769C13.8643 24.0971 14.1503 24.7878 14.6596 25.297C15.1688 25.8062 15.8594 26.0922 16.5796 26.0922C17.2997 26.0922 17.9904 25.8062 18.4996 25.297C19.0088 24.7878 19.2949 24.0971 19.2949 23.3769C19.2949 22.6568 19.0088 21.9662 18.4996 21.457C17.9904 20.9477 17.2997 20.6616 16.5796 20.6616Z" fill="#44C9F7"/>
<path d="M18.6921 23.3751C18.6921 22.8145 18.4694 22.2768 18.073 21.8804C17.6765 21.484 17.1389 21.2612 16.5782 21.2612C16.0176 21.2612 15.4799 21.484 15.0835 21.8804C14.6871 22.2768 14.4644 22.8145 14.4644 23.3751C14.4644 23.9357 14.6871 24.4734 15.0835 24.8698C15.4799 25.2662 16.0176 25.489 16.5782 25.489C17.1389 25.489 17.6765 25.2662 18.073 24.8698C18.4694 24.4734 18.6921 23.9357 18.6921 23.3751Z" fill="#44C9F7"/>
<path d="M21.7483 17.0545C22.3879 17.0552 23.0011 17.3096 23.4534 17.7619C23.9057 18.2142 24.1601 18.8275 24.1608 19.4671C24.1601 20.1067 23.9057 20.7199 23.4534 21.1722C23.0011 21.6245 22.3879 21.8789 21.7483 21.8796C21.1086 21.8789 20.4954 21.6245 20.0431 21.1722C19.5909 20.7199 19.3364 20.1067 19.3357 19.4671C19.3364 18.8275 19.5909 18.2142 20.0431 17.7619C20.4954 17.3096 21.1086 17.0552 21.7483 17.0545ZM21.7483 16.7559C21.0281 16.7559 20.3375 17.0419 19.8283 17.5511C19.3191 18.0603 19.033 18.751 19.033 19.4712C19.033 20.1913 19.3191 20.8819 19.8283 21.3911C20.3375 21.9004 21.0281 22.1865 21.7483 22.1865C22.4684 22.1865 23.1591 21.9004 23.6683 21.3911C24.1775 20.8819 24.4636 20.1913 24.4636 19.4712C24.4636 18.751 24.1775 18.0603 23.6683 17.5511C23.1591 17.0419 22.4684 16.7559 21.7483 16.7559Z" fill="#44C9F7"/>
<path d="M23.862 19.4669C23.862 18.9063 23.6393 18.3686 23.2429 17.9722C22.8464 17.5758 22.3088 17.353 21.7481 17.353C21.1875 17.353 20.6498 17.5758 20.2534 17.9722C19.857 18.3686 19.6343 18.9063 19.6343 19.4669C19.6343 20.0275 19.857 20.5652 20.2534 20.9616C20.6498 21.358 21.1875 21.5808 21.7481 21.5808C22.3088 21.5808 22.8464 21.358 23.2429 20.9616C23.6393 20.5652 23.862 20.0275 23.862 19.4669Z" fill="#44C9F7"/>
<path d="M13.286 0V5.42117C11.2001 5.42117 9.19964 6.24977 7.72468 7.72472C6.24973 9.19967 5.42111 11.2001 5.42111 13.286C5.42111 15.3719 6.24973 17.3723 7.72468 18.8473C9.19964 20.3223 11.2001 21.1509 13.286 21.1509V26.572C9.76233 26.572 6.38299 25.1722 3.89138 22.6806C1.39977 20.189 0 16.8097 0 13.286C0 9.76235 1.39977 6.38301 3.89138 3.8914C6.38299 1.3998 9.76233 0 13.286 0Z" fill="#28AA7E"/>
<path d="M43.1271 5.32745L42.8475 8.29392C42.2375 8.01031 41.5944 7.80412 40.9332 7.68022C40.2675 7.53837 39.5894 7.46294 38.9089 7.45491C37.9239 7.4435 36.9541 7.69768 36.1013 8.19075C35.26 8.67933 34.5879 9.41302 34.1748 10.2938C33.7261 11.2369 33.4995 12.2702 33.5122 13.3145C33.4766 14.1076 33.6015 14.8998 33.8793 15.6435C34.1572 16.3872 34.5823 17.0672 35.1292 17.6427C35.6835 18.1926 36.3453 18.6222 37.0732 18.9046C37.8011 19.1871 38.5795 19.3163 39.3596 19.2842C40.618 19.2884 41.8644 19.0404 43.0253 18.555L43.1706 21.6424C42.5605 21.8159 41.939 21.946 41.3106 22.032C40.5628 22.1497 39.8071 22.2105 39.0501 22.2139C37.5572 22.2331 36.075 21.9605 34.6866 21.4115C33.1771 20.8247 31.8933 19.773 31.0209 18.4085C30.1259 16.9215 29.6785 15.2081 29.7325 13.4734C29.6811 12.29 29.8731 11.1088 30.2965 10.0026C30.7198 8.8964 31.3656 7.8888 32.1939 7.04216C33.0613 6.21422 34.0876 5.57073 35.2107 5.1507C36.3339 4.73066 37.5305 4.54281 38.7283 4.59841C40.2258 4.59017 41.7137 4.83668 43.1285 5.32745" fill="#44C9F7"/>
<path d="M45.26 22.043V4.75732H48.7736V11.6745H55.6908V4.75732H59.2045V22.043H55.6908V14.603H48.7736V22.043H45.26Z" fill="#44C9F7"/>
<path d="M60.918 22.043L67.713 4.75732H71.6394L78.4711 22.043H74.6058L73.1599 18.0921H66.0187L64.5483 22.043H60.918ZM67.0817 15.2968H72.105L69.6001 8.20979L67.0817 15.2968Z" fill="#44C9F7"/>
<path d="M80.2102 22.043V4.75732H83.7238V12.1362L89.984 4.75732H94.2755L87.1275 12.7674L94.5552 22.043H90.0084L83.7238 13.9717V22.043H80.2102Z" fill="#44C9F7"/>
<path d="M96.1599 4.75732H101.087C102.505 4.75732 103.445 4.7817 103.907 4.83058C104.499 4.88545 105.078 5.03725 105.621 5.27995C106.093 5.51178 106.517 5.82897 106.873 6.21541C107.252 6.6172 107.547 7.09024 107.742 7.60704C107.943 8.14125 108.043 8.70766 108.039 9.27825C108.052 9.8846 107.934 10.4866 107.693 11.0432C107.494 11.5024 107.214 11.9223 106.866 12.2828C106.571 12.5845 106.228 12.835 105.851 13.0241C105.426 13.219 104.976 13.352 104.514 13.4191C104.867 13.4561 105.198 13.6127 105.45 13.8631C105.812 14.2096 106.094 14.6307 106.277 15.0972L106.684 16.0218L109.165 22.0388H105.275L103.403 17.1649C103.261 16.7755 103.099 16.394 102.917 16.0218C102.783 15.7434 102.604 15.4889 102.387 15.2682C102.224 15.112 102.026 14.9955 101.81 14.9275C101.356 14.8238 100.89 14.7782 100.424 14.7917C100.213 14.7917 99.9663 14.8039 99.683 14.8284V22.0375H96.1694L96.1599 4.75732ZM99.6735 7.47263V12.1647H101.205C102.079 12.2407 102.95 11.9895 103.649 11.46C103.901 11.2321 104.1 10.9521 104.234 10.6394C104.367 10.3266 104.43 9.98865 104.42 9.6489C104.428 9.35391 104.37 9.06082 104.251 8.79068C104.132 8.52053 103.955 8.28001 103.733 8.08624C103.153 7.63723 102.428 7.41869 101.696 7.47263H99.6735Z" fill="#44C9F7"/>
<path d="M109.689 22.043L116.484 4.75732H120.41L127.242 22.043H123.377L121.93 18.0921H114.795L113.325 22.043H109.689ZM115.853 15.2968H120.876L118.373 8.20979L115.853 15.2968Z" fill="#44C9F7"/>
</svg>
